<svg width="63" height="16" viewBox="0 0 63 16" fill="none" xmlns="http://www.w3.org/2000/svg">
<path d="M6.09 12.7C6.57 12.7 6.96333 12.6433 7.27 12.53C7.58333 12.41 7.83333 12.2533 8.02 12.06C8.20667 11.8667 8.33667 11.6467 8.41 11.4C8.48333 11.1467 8.52 10.8867 8.52 10.62C8.52 10.3267 8.47667 10.0633 8.39 9.83C8.30333 9.59667 8.16333 9.4 7.97 9.24C7.77667 9.07333 7.52333 8.94667 7.21 8.86C6.90333 8.77333 6.52333 8.73 6.07 8.73H3.52V12.7H6.09ZM3.52 2.77V6.69H5.49C5.91 6.69 6.28333 6.65667 6.61 6.59C6.93667 6.51667 7.21 6.40333 7.43 6.25C7.65 6.09667 7.81667 5.89667 7.93 5.65C8.05 5.39667 8.11 5.09333 8.11 4.74C8.11 4.38 8.06 4.07333 7.96 3.82C7.86667 3.56667 7.72 3.36333 7.52 3.21C7.32 3.05667 7.06667 2.94667 6.76 2.88C6.45333 2.80667 6.09 2.77 5.67 2.77H3.52ZM5.67 0.489999C6.64333 0.489999 7.47333 0.583332 8.16 0.769999C8.85333 0.949999 9.41667 1.21 9.85 1.55C10.29 1.88333 10.61 2.29 10.81 2.77C11.01 3.25 11.11 3.78667 11.11 4.38C11.11 4.71333 11.06 5.03333 10.96 5.34C10.8667 5.64667 10.7167 5.93667 10.51 6.21C10.31 6.47667 10.05 6.72 9.73 6.94C9.41 7.16 9.03 7.34667 8.59 7.5C9.57667 7.73333 10.3067 8.11333 10.78 8.64C11.2533 9.16667 11.49 9.85 11.49 10.69C11.49 11.3033 11.37 11.8733 11.13 12.4C10.8967 12.9267 10.5533 13.3833 10.1 13.77C9.64667 14.1567 9.08667 14.46 8.42 14.68C7.76 14.8933 7 15 6.14 15H0.52V0.489999H5.67ZM18.2159 4.69V15H15.4559V4.69H18.2159ZM18.5459 1.76C18.5459 1.99333 18.4993 2.21 18.4059 2.41C18.3126 2.61 18.1859 2.78667 18.0259 2.94C17.8726 3.09333 17.6893 3.21333 17.4759 3.3C17.2693 3.38667 17.0459 3.43 16.8059 3.43C16.5793 3.43 16.3626 3.38667 16.1559 3.3C15.9559 3.21333 15.7793 3.09333 15.6259 2.94C15.4726 2.78667 15.3493 2.61 15.2559 2.41C15.1693 2.21 15.1259 1.99333 15.1259 1.76C15.1259 1.52667 15.1693 1.31 15.2559 1.11C15.3493 0.903333 15.4726 0.723333 15.6259 0.569999C15.7793 0.416666 15.9559 0.296666 16.1559 0.209999C16.3626 0.123332 16.5793 0.079999 16.8059 0.079999C17.0459 0.079999 17.2693 0.123332 17.4759 0.209999C17.6893 0.296666 17.8726 0.416666 18.0259 0.569999C18.1859 0.723333 18.3126 0.903333 18.4059 1.11C18.4993 1.31 18.5459 1.52667 18.5459 1.76ZM25.2812 5.89C25.4879 5.69 25.7012 5.50667 25.9212 5.34C26.1479 5.17333 26.3846 5.03 26.6312 4.91C26.8846 4.79 27.1546 4.69667 27.4412 4.63C27.7346 4.56333 28.0512 4.53 28.3912 4.53C28.9512 4.53 29.4479 4.62667 29.8812 4.82C30.3146 5.01333 30.6779 5.28333 30.9712 5.63C31.2712 5.97667 31.4946 6.39 31.6412 6.87C31.7946 7.35 31.8712 7.87667 31.8712 8.45V15H29.1212V8.45C29.1212 7.87667 28.9879 7.43333 28.7212 7.12C28.4546 6.8 28.0612 6.64 27.5412 6.64C27.1546 6.64 26.7912 6.72333 26.4512 6.89C26.1112 7.05667 25.7879 7.29 25.4812 7.59V15H22.7212V4.69H24.4212C24.7679 4.69 24.9979 4.85 25.1112 5.17L25.2812 5.89Z" fill="#151F32"/>
<path d="M43.6589 7.61H48.6389V13.6C47.8989 14.14 47.1089 14.5367 46.2689 14.79C45.4356 15.0367 44.5522 15.16 43.6189 15.16C42.4256 15.16 41.3456 14.9767 40.3789 14.61C39.4122 14.2367 38.5856 13.72 37.8989 13.06C37.2122 12.4 36.6822 11.6167 36.3089 10.71C35.9356 9.80333 35.7489 8.81333 35.7489 7.74C35.7489 6.65333 35.9256 5.65667 36.2789 4.75C36.6389 3.84333 37.1489 3.06333 37.8089 2.41C38.4689 1.75667 39.2656 1.24667 40.1989 0.879999C41.1389 0.513332 42.1889 0.329999 43.3489 0.329999C43.9489 0.329999 44.5089 0.379999 45.0289 0.48C45.5489 0.573333 46.0289 0.706666 46.4689 0.879999C46.9089 1.04667 47.3122 1.24667 47.6789 1.48C48.0456 1.71333 48.3789 1.97 48.6789 2.25L47.8089 3.59C47.6756 3.80333 47.5022 3.93333 47.2889 3.98C47.0756 4.02667 46.8422 3.97333 46.5889 3.82C46.3489 3.67333 46.1122 3.54333 45.8789 3.43C45.6522 3.31 45.4089 3.20667 45.1489 3.12C44.8889 3.03333 44.6056 2.96667 44.2989 2.92C43.9922 2.87333 43.6389 2.85 43.2389 2.85C42.5656 2.85 41.9556 2.96667 41.4089 3.2C40.8622 3.43333 40.3956 3.76333 40.0089 4.19C39.6289 4.61667 39.3356 5.13 39.1289 5.73C38.9222 6.33 38.8189 7 38.8189 7.74C38.8189 8.54 38.9322 9.25667 39.1589 9.89C39.3856 10.5167 39.7056 11.0467 40.1189 11.48C40.5322 11.9133 41.0256 12.2433 41.5989 12.47C42.1789 12.6967 42.8222 12.81 43.5289 12.81C44.0089 12.81 44.4356 12.7633 44.8089 12.67C45.1889 12.57 45.5589 12.4367 45.9189 12.27V9.83H44.2789C44.0856 9.83 43.9322 9.78 43.8189 9.68C43.7122 9.57333 43.6589 9.44 43.6589 9.28V7.61ZM57.3939 4.53C58.1672 4.53 58.8706 4.65333 59.5039 4.9C60.1372 5.14667 60.6806 5.5 61.1339 5.96C61.5872 6.41333 61.9372 6.96667 62.1839 7.62C62.4306 8.27333 62.5539 9.01 62.5539 9.83C62.5539 10.65 62.4306 11.39 62.1839 12.05C61.9372 12.7033 61.5872 13.26 61.1339 13.72C60.6806 14.18 60.1372 14.5333 59.5039 14.78C58.8706 15.0267 58.1672 15.15 57.3939 15.15C56.6139 15.15 55.9039 15.0267 55.2639 14.78C54.6306 14.5333 54.0872 14.18 53.6339 13.72C53.1806 13.26 52.8272 12.7033 52.5739 12.05C52.3272 11.39 52.2039 10.65 52.2039 9.83C52.2039 9.01 52.3272 8.27333 52.5739 7.62C52.8272 6.96667 53.1806 6.41333 53.6339 5.96C54.0872 5.5 54.6306 5.14667 55.2639 4.9C55.9039 4.65333 56.6139 4.53 57.3939 4.53ZM57.3939 13.08C58.1806 13.08 58.7639 12.81 59.1439 12.27C59.5239 11.7233 59.7139 10.9133 59.7139 9.84C59.7139 8.77333 59.5239 7.97 59.1439 7.43C58.7639 6.88333 58.1806 6.61 57.3939 6.61C56.5872 6.61 55.9939 6.88333 55.6139 7.43C55.2339 7.97 55.0439 8.77333 55.0439 9.84C55.0439 10.9133 55.2339 11.7233 55.6139 12.27C55.9939 12.81 56.5872 13.08 57.3939 13.08Z" fill="#E75A31"/>
</svg>
