<svg width="15" height="15" viewBox="0 0 15 15" fill="none" xmlns="http://www.w3.org/2000/svg">
<path d="M3.61122 10H2.50011V0.277778C2.50011 0.124167 2.37566 0 2.22233 0C2.069 0 1.94455 0.124167 1.94455 0.277778V10H0.833442C0.680109 10 0.555664 10.1242 0.555664 10.2778V13.6111C0.555664 13.7647 0.680109 13.8889 0.833442 13.8889H1.94455V14.7222C1.94455 14.8758 2.069 15 2.22233 15C2.37566 15 2.50011 14.8758 2.50011 14.7222V13.8889H3.61122C3.76455 13.8889 3.889 13.7647 3.889 13.6111V10.2778C3.889 10.1242 3.76455 10 3.61122 10ZM3.33344 13.3333H1.11122V10.5556H3.33344V13.3333Z" fill="#F7F7F7"/>
<path d="M8.88905 5.55556H7.77794V0.277778C7.77794 0.124167 7.6535 0 7.50016 0C7.34683 0 7.22239 0.124167 7.22239 0.277778V5.55556H6.11127C5.95794 5.55556 5.8335 5.67972 5.8335 5.83333V9.16667C5.8335 9.32028 5.95794 9.44444 6.11127 9.44444H7.22239V14.7222C7.22239 14.8758 7.34683 15 7.50016 15C7.6535 15 7.77794 14.8758 7.77794 14.7222V9.44444H8.88905C9.04239 9.44444 9.16683 9.32028 9.16683 9.16667V5.83333C9.16683 5.67972 9.04239 5.55556 8.88905 5.55556ZM8.61127 8.88889H6.38905V6.11111H8.61127V8.88889Z" fill="#F7F7F7"/>
<path d="M14.1669 1.11111H13.0558V0.277778C13.0558 0.124167 12.9313 0 12.778 0C12.6247 0 12.5002 0.124167 12.5002 0.277778V1.11111H11.3891C11.2358 1.11111 11.1113 1.23528 11.1113 1.38889V4.72222C11.1113 4.87583 11.2358 5 11.3891 5H12.5002V14.7222C12.5002 14.8758 12.6247 15 12.778 15C12.9313 15 13.0558 14.8758 13.0558 14.7222V5H14.1669C14.3202 5 14.4447 4.87583 14.4447 4.72222V1.38889C14.4447 1.23528 14.3202 1.11111 14.1669 1.11111ZM13.8891 4.44444H11.6669V1.66667H13.8891V4.44444Z" fill="#F7F7F7"/>
</svg>
