<svg width="63" height="16" viewBox="0 0 63 16" fill="none" xmlns="http://www.w3.org/2000/svg">
<path d="M6.09 12.7088C6.57 12.7088 6.96333 12.6521 7.27 12.5388C7.58333 12.4188 7.83333 12.2621 8.02 12.0688C8.20667 11.8755 8.33667 11.6555 8.41 11.4088C8.48333 11.1555 8.52 10.8955 8.52 10.6288C8.52 10.3355 8.47667 10.0721 8.39 9.83879C8.30333 9.60546 8.16333 9.40879 7.97 9.24879C7.77667 9.08212 7.52333 8.95546 7.21 8.86879C6.90333 8.78212 6.52333 8.73879 6.07 8.73879H3.52V12.7088H6.09ZM3.52 2.77879V6.69879H5.49C5.91 6.69879 6.28333 6.66546 6.61 6.59879C6.93667 6.52546 7.21 6.41212 7.43 6.25879C7.65 6.10546 7.81667 5.90546 7.93 5.65879C8.05 5.40546 8.11 5.10212 8.11 4.74879C8.11 4.38879 8.06 4.08212 7.96 3.82879C7.86667 3.57546 7.72 3.37212 7.52 3.21879C7.32 3.06546 7.06667 2.95546 6.76 2.88879C6.45333 2.81546 6.09 2.77879 5.67 2.77879H3.52ZM5.67 0.498788C6.64333 0.498788 7.47333 0.592121 8.16 0.778788C8.85333 0.958789 9.41667 1.21879 9.85 1.55879C10.29 1.89212 10.61 2.29879 10.81 2.77879C11.01 3.25879 11.11 3.79546 11.11 4.38879C11.11 4.72212 11.06 5.04212 10.96 5.34879C10.8667 5.65546 10.7167 5.94546 10.51 6.21879C10.31 6.48546 10.05 6.72879 9.73 6.94879C9.41 7.16879 9.03 7.35546 8.59 7.50879C9.57667 7.74212 10.3067 8.12212 10.78 8.64879C11.2533 9.17546 11.49 9.85879 11.49 10.6988C11.49 11.3121 11.37 11.8821 11.13 12.4088C10.8967 12.9355 10.5533 13.3921 10.1 13.7788C9.64667 14.1655 9.08667 14.4688 8.42 14.6888C7.76 14.9021 7 15.0088 6.14 15.0088H0.52V0.498788H5.67ZM18.2159 4.69879V15.0088H15.4559V4.69879H18.2159ZM18.5459 1.76879C18.5459 2.00212 18.4993 2.21879 18.4059 2.41879C18.3126 2.61879 18.1859 2.79545 18.0259 2.94879C17.8726 3.10212 17.6893 3.22212 17.4759 3.30879C17.2693 3.39546 17.0459 3.43879 16.8059 3.43879C16.5793 3.43879 16.3626 3.39546 16.1559 3.30879C15.9559 3.22212 15.7793 3.10212 15.6259 2.94879C15.4726 2.79545 15.3493 2.61879 15.2559 2.41879C15.1693 2.21879 15.1259 2.00212 15.1259 1.76879C15.1259 1.53545 15.1693 1.31879 15.2559 1.11879C15.3493 0.912122 15.4726 0.732122 15.6259 0.578788C15.7793 0.425455 15.9559 0.305455 16.1559 0.218788C16.3626 0.132121 16.5793 0.088788 16.8059 0.088788C17.0459 0.088788 17.2693 0.132121 17.4759 0.218788C17.6893 0.305455 17.8726 0.425455 18.0259 0.578788C18.1859 0.732122 18.3126 0.912122 18.4059 1.11879C18.4993 1.31879 18.5459 1.53545 18.5459 1.76879ZM25.2812 5.89879C25.4879 5.69879 25.7012 5.51546 25.9212 5.34879C26.1479 5.18212 26.3846 5.03879 26.6312 4.91879C26.8846 4.79879 27.1546 4.70546 27.4412 4.63879C27.7346 4.57212 28.0512 4.53879 28.3912 4.53879C28.9512 4.53879 29.4479 4.63546 29.8812 4.82879C30.3146 5.02212 30.6779 5.29212 30.9712 5.63879C31.2712 5.98546 31.4946 6.39879 31.6412 6.87879C31.7946 7.35879 31.8712 7.88546 31.8712 8.45879V15.0088H29.1212V8.45879C29.1212 7.88546 28.9879 7.44212 28.7212 7.12879C28.4546 6.80879 28.0612 6.64879 27.5412 6.64879C27.1546 6.64879 26.7912 6.73212 26.4512 6.89879C26.1112 7.06546 25.7879 7.29879 25.4812 7.59879V15.0088H22.7212V4.69879H24.4212C24.7679 4.69879 24.9979 4.85879 25.1112 5.17879L25.2812 5.89879Z" fill="#151F32"/>
<path d="M43.6589 7.61879H48.6389V13.6088C47.8989 14.1488 47.1089 14.5455 46.2689 14.7988C45.4356 15.0455 44.5522 15.1688 43.6189 15.1688C42.4256 15.1688 41.3456 14.9855 40.3789 14.6188C39.4122 14.2455 38.5856 13.7288 37.8989 13.0688C37.2122 12.4088 36.6822 11.6255 36.3089 10.7188C35.9356 9.81212 35.7489 8.82212 35.7489 7.74879C35.7489 6.66212 35.9256 5.66546 36.2789 4.75879C36.6389 3.85212 37.1489 3.07212 37.8089 2.41879C38.4689 1.76545 39.2656 1.25545 40.1989 0.888788C41.1389 0.522121 42.1889 0.338788 43.3489 0.338788C43.9489 0.338788 44.5089 0.388788 45.0289 0.488789C45.5489 0.582122 46.0289 0.715455 46.4689 0.888788C46.9089 1.05545 47.3122 1.25545 47.6789 1.48879C48.0456 1.72212 48.3789 1.97879 48.6789 2.25879L47.8089 3.59879C47.6756 3.81212 47.5022 3.94212 47.2889 3.98879C47.0756 4.03546 46.8422 3.98212 46.5889 3.82879C46.3489 3.68212 46.1122 3.55212 45.8789 3.43879C45.6522 3.31879 45.4089 3.21545 45.1489 3.12879C44.8889 3.04212 44.6056 2.97545 44.2989 2.92879C43.9922 2.88212 43.6389 2.85879 43.2389 2.85879C42.5656 2.85879 41.9556 2.97546 41.4089 3.20879C40.8622 3.44212 40.3956 3.77212 40.0089 4.19879C39.6289 4.62545 39.3356 5.13879 39.1289 5.73879C38.9222 6.33879 38.8189 7.00879 38.8189 7.74879C38.8189 8.54879 38.9322 9.26546 39.1589 9.89879C39.3856 10.5255 39.7056 11.0555 40.1189 11.4888C40.5322 11.9221 41.0256 12.2521 41.5989 12.4788C42.1789 12.7055 42.8222 12.8188 43.5289 12.8188C44.0089 12.8188 44.4356 12.7721 44.8089 12.6788C45.1889 12.5788 45.5589 12.4455 45.9189 12.2788V9.83879H44.2789C44.0856 9.83879 43.9322 9.78879 43.8189 9.68879C43.7122 9.58212 43.6589 9.44879 43.6589 9.28879V7.61879ZM57.3939 4.53879C58.1672 4.53879 58.8706 4.66212 59.5039 4.90879C60.1372 5.15546 60.6806 5.50879 61.1339 5.96879C61.5872 6.42212 61.9372 6.97546 62.1839 7.62879C62.4306 8.28212 62.5539 9.01879 62.5539 9.83879C62.5539 10.6588 62.4306 11.3988 62.1839 12.0588C61.9372 12.7121 61.5872 13.2688 61.1339 13.7288C60.6806 14.1888 60.1372 14.5421 59.5039 14.7888C58.8706 15.0355 58.1672 15.1588 57.3939 15.1588C56.6139 15.1588 55.9039 15.0355 55.2639 14.7888C54.6306 14.5421 54.0872 14.1888 53.6339 13.7288C53.1806 13.2688 52.8272 12.7121 52.5739 12.0588C52.3272 11.3988 52.2039 10.6588 52.2039 9.83879C52.2039 9.01879 52.3272 8.28212 52.5739 7.62879C52.8272 6.97546 53.1806 6.42212 53.6339 5.96879C54.0872 5.50879 54.6306 5.15546 55.2639 4.90879C55.9039 4.66212 56.6139 4.53879 57.3939 4.53879ZM57.3939 13.0888C58.1806 13.0888 58.7639 12.8188 59.1439 12.2788C59.5239 11.7321 59.7139 10.9221 59.7139 9.84879C59.7139 8.78212 59.5239 7.97879 59.1439 7.43879C58.7639 6.89212 58.1806 6.61879 57.3939 6.61879C56.5872 6.61879 55.9939 6.89212 55.6139 7.43879C55.2339 7.97879 55.0439 8.78212 55.0439 9.84879C55.0439 10.9221 55.2339 11.7321 55.6139 12.2788C55.9939 12.8188 56.5872 13.0888 57.3939 13.0888Z" fill="#E75A31"/>
</svg>
