<svg width="277" height="108" viewBox="0 0 277 108" fill="none" xmlns="http://www.w3.org/2000/svg">
<rect y="64" width="7" height="44" fill="#EAF0F7"/>
<rect x="15" y="44" width="7" height="64" fill="#EAF0F7"/>
<rect x="30" y="55" width="7" height="53" fill="#EAF0F7"/>
<rect x="45" y="24" width="7" height="84" fill="#EAF0F7"/>
<rect x="60" y="81" width="7" height="27" fill="#E75A31"/>
<rect x="75" y="12" width="7" height="96" fill="#EAF0F7"/>
<rect x="90" y="53" width="7" height="55" fill="#EAF0F7"/>
<rect x="105" y="68" width="7" height="40" fill="#EAF0F7"/>
<rect x="120" y="33" width="7" height="75" fill="#EAF0F7"/>
<rect x="135" y="42" width="7" height="66" fill="#EAF0F7"/>
<rect x="150" y="5" width="7" height="103" fill="#EAF0F7"/>
<rect x="165" y="31" width="7" height="77" fill="#EAF0F7"/>
<rect x="180" y="53" width="7" height="55" fill="#EAF0F7"/>
<rect x="195" y="74" width="7" height="34" fill="#EAF0F7"/>
<rect x="210" width="7" height="108" fill="#E75A31"/>
<rect x="225" y="33" width="7" height="75" fill="#EAF0F7"/>
<rect x="240" y="50" width="7" height="58" fill="#EAF0F7"/>
<rect x="255" y="70" width="7" height="38" fill="#EAF0F7"/>
<rect x="270" y="43" width="7" height="65" fill="#EAF0F7"/>
</svg>
