<svg width="440" height="442" viewBox="0 0 440 442" fill="none" xmlns="http://www.w3.org/2000/svg">
<mask id="mask0" mask-type="alpha" maskUnits="userSpaceOnUse" x="0" y="0" width="440" height="442">
<rect x="0.5" y="442" width="442" height="439.5" transform="rotate(-90 0.5 442)" fill="#032F48"/>
</mask>
<g mask="url(#mask0)">
<rect x="0.5" y="442" width="442" height="439.5" transform="rotate(-90 0.5 442)" fill="#032F48"/>
<path fill-rule="evenodd" clip-rule="evenodd" d="M491.061 220.758L206.86 504.725L125.049 422.982L327.44 220.758L125.049 18.5335L206.86 -63.2095L491.061 220.758Z" fill="#F9BA51"/>
<path d="M273.218 164.975L106.466 0.476623L439.97 0.476595L273.218 164.975Z" fill="#F8BC4C"/>
<path d="M164.124 -4.08657L101.601 -3.89507L164.509 57.8425L164.124 -4.08657Z" fill="#EC562C"/>
<path d="M220.268 113.003L164.823 58.2896L275.713 58.2896L220.268 113.003Z" fill="#FAB953"/>
<path d="M220.268 3.81445L164.823 58.528L275.713 58.528L220.268 3.81445Z" fill="#FEFDF9"/>
<path d="M220.267 86.3019L191.919 58.4087L248.615 58.4087L220.267 86.3019Z" fill="#EC562C"/>
<path d="M220.267 30.5153L191.919 58.4085L248.615 58.4085L220.267 30.5153Z" fill="#EC562C"/>
<path d="M442.652 58.6107L326.912 58.6107L269.042 -0.537689L442.652 -0.537697L442.652 58.6107Z" fill="#78C9BF"/>
<path d="M273.704 277.025L106.531 441.523L440.877 441.523L273.704 277.025Z" fill="#F8BC4C"/>
<path d="M220.62 328.996L165.035 383.71L276.205 383.71L220.62 328.996Z" fill="#FAB953"/>
<path d="M220.62 438.185L165.035 383.471L276.205 383.471L220.62 438.185Z" fill="#FEFDF9"/>
<path d="M220.62 355.698L192.201 383.591L249.04 383.591L220.62 355.698Z" fill="#EC562C"/>
<path d="M220.62 411.484L192.201 383.591L249.04 383.591L220.62 411.484Z" fill="#EC562C"/>
<path d="M442.611 382.876L327.433 382.876L269.844 442L442.611 442L442.611 382.876Z" fill="#78C9BF"/>
<path d="M164.335 444.977L101.655 444.786L164.722 383.048L164.335 444.977Z" fill="#EC562C"/>
<path d="M440 221.477L328.693 111.019L328.693 331.934L440 221.477Z" fill="#EF562C"/>
</g>
</svg>
