<svg width="822" height="389" viewBox="330 158 480 396" fill="none" xmlns="http://www.w3.org/2000/svg">
<rect x="159" y="160.009" width="822" height="389" fill="#F6BC51"/>
<mask id="mask0" mask-type="alpha" maskUnits="userSpaceOnUse" x="159" y="160" width="822" height="390">
<rect x="159" y="160.009" width="822" height="389" fill="#C4C4C4"/>
</mask>
<g mask="url(#mask0)">
<rect width="92.1798" height="642.096" transform="matrix(-0.90131 -0.433175 0.90397 -0.427596 88.54 431.832)" fill="#F6BC51"/>
<rect width="92.1798" height="770.551" transform="matrix(-0.90131 -0.433175 0.90397 -0.427596 55.2256 526.752)" fill="#78CBC1"/>
<rect width="92.1798" height="838.863" transform="matrix(-0.90131 -0.433175 0.90397 -0.427596 75.9331 594.498)" fill="#FEFEF7"/>
<rect width="92.1798" height="1107.24" transform="matrix(-0.90131 -0.433175 0.90397 -0.427596 158.723 634.547)" fill="#78CBC1"/>
<rect width="229.515" height="986.076" transform="matrix(-0.90131 -0.433175 0.90397 -0.427596 365.844 734.193)" fill="#77CBC3"/>
</g>
<path d="M593 193.009L675.766 231.848H510.428L593 193.009Z" fill="#032F48"/>
<path d="M511 231.509L595.218 269.912H429.88L511 231.509Z" fill="#032F48"/>
<path d="M430.349 269.807L512.604 308.184L347.708 308.707L430.349 269.807Z" fill="#EF562C"/>
<path d="M600.052 346.352L517.383 308.393H682.721L600.052 346.352Z" fill="#EF562C"/>
<path d="M681.81 308.498L596.93 270.33H762.269L681.81 308.498Z" fill="#EF562C"/>
<path d="M761.8 270.435L679.546 232.058L844.442 231.535L761.8 270.435Z" fill="#134657"/>
<path d="M270.223 425.038L351.072 463.865L349.792 385.623L270.223 425.038Z" fill="#F6BC51"/>
<path d="M349.578 386.055L430.886 425.926L429.605 347.685L349.578 386.055Z" fill="#F6BC51"/>
<path d="M429.388 347.907L511.118 386.535L510.946 308.498L429.388 347.907Z" fill="#F6BC51"/>
<rect x="629" y="232.009" width="352" height="317" fill="#032F48"/>
<path d="M157 160.008L751.386 549.06L157 550.009L157 160.008Z" fill="#F1552C"/>
</svg>
